<svg width="77" height="30" viewBox="0 0 77 30" fill="none"
  xmlns="http://www.w3.org/2000/svg">
  <path d="M37.4363 0.203735H39.6265C43.8031 0.203735 44.2105 2.90323 44.2105 7.02886C44.2105 11.0017 43.9049 13.854 40.034 13.854H37.4873V0.203735H37.4363ZM39.9321 11.7657C41.511 11.7657 41.562 11.1545 41.562 7.02886C41.562 2.90323 41.4601 2.34295 39.9321 2.34295V11.7657Z" fill="#DEFE7F"/>
  <path d="M46.3498 0.203735H49.5586L51.4431 13.854H49.0493L48.6418 10.8489H46.7063L46.2988 13.854H44.2105L46.3498 0.203735ZM47.725 3.66723L46.91 8.81154H48.438L47.725 3.66723Z" fill="#DEFE7F"/>
  <path d="M51.8506 0.203735H54.652L56.5365 6.82513H56.5874V0.203735H58.5739V13.854H56.6384L53.9898 5.04244H53.9389V13.854H51.8506V0.203735Z" fill="#DEFE7F"/>
  <path d="M63.8201 5.04244C63.7691 3.10696 63.5144 2.03735 62.9032 2.03735C62.3939 2.03735 61.8846 2.39389 61.8846 7.02886C61.8846 11.511 62.1392 12.0204 62.9032 12.0204C63.6672 12.0204 63.82 10.5942 63.9219 8.81154H66.1121C66.1121 11.3073 65.6537 14.1596 62.8523 14.1596C60.2038 14.1596 59.2869 11.562 59.2869 7.0798C59.2869 1.88455 60.8659 0 62.8523 0C65.6027 0 66.0102 2.54669 66.0611 5.09338H63.8201V5.04244Z" fill="#DEFE7F"/>
  <path d="M66.7233 0.203735H72.4788V2.29202H69.219V5.75552H72.4788V7.9966H69.219V11.7148H72.4788V13.8031H66.7233V0.203735Z" fill="#DEFE7F"/>
  <path d="M36.8761 20.4244C36.8251 18.489 36.5705 17.4194 35.9593 17.4194C35.4499 17.4194 34.9406 17.7759 34.9406 22.4109C34.9406 26.893 35.1953 27.4024 35.9593 27.4024C36.7233 27.4024 36.8761 25.9762 36.9779 24.1935H39.1681C39.1681 26.6893 38.7097 29.5416 35.9083 29.5416C33.2598 29.5416 32.343 26.944 32.343 22.4618C32.343 17.2666 33.9219 15.382 35.9083 15.382C38.6588 15.382 39.0662 17.9287 39.1172 20.4754H36.8761V20.4244Z" fill="#DEFE7F"/>
  <path d="M40.034 15.5857H42.5297V21.0866H44.1087V15.5857H46.6044V29.236H44.1087V23.4295H42.5297V29.236H40.034V15.5857Z" fill="#DEFE7F"/>
  <path d="M47.5212 15.5857H50.017V26.129C50.017 26.7402 50.1698 27.3514 50.8829 27.3514C51.5959 27.3514 51.7997 26.7402 51.7997 26.129V15.5857H53.888V25.8234C53.888 28.5229 52.7165 29.4907 50.7301 29.4907C48.7946 29.4907 47.5212 28.472 47.5212 25.8234V15.5857Z" fill="#DEFE7F"/>
  <path d="M55.0594 15.5857H57.8608C60.2547 15.5857 61.8336 16.6553 61.8336 19.4567C61.8336 20.6282 61.1715 22.3599 60.0509 23.0221L61.8336 29.236H59.3379L57.5552 23.3786V29.236H55.0594V15.5857ZM57.5552 21.3413H58.0645C58.9813 21.3413 59.3379 20.4244 59.3379 19.4567C59.3379 17.9796 58.7776 17.5722 57.9627 17.5722H57.5552V21.3413Z" fill="#DEFE7F"/>
  <path d="M66.8251 20.4244C66.7742 18.489 66.5195 17.4194 65.9083 17.4194C65.399 17.4194 64.8897 17.7759 64.8897 22.4109C64.8897 26.893 65.1443 27.4024 65.9083 27.4024C66.6723 27.4024 66.8251 25.9762 66.927 24.1935H69.1172C69.1172 26.6893 68.6588 29.5416 65.8574 29.5416C63.2088 29.5416 62.292 26.944 62.292 22.4618C62.292 17.2666 63.871 15.382 65.8574 15.382C68.6078 15.382 69.0153 17.9287 69.0662 20.4754H66.8251V20.4244Z" fill="#DEFE7F"/>
  <path d="M69.9321 15.5857H72.4279V21.0866H74.0068V15.5857H76.5026V29.236H74.0068V23.4295H72.4279V29.236H69.9321V15.5857Z" fill="#DEFE7F"/>
  <path d="M4.38032 19.5076H6.16301C6.21394 19.8642 6.21394 20.2716 6.77421 20.2716C7.28355 20.2716 7.74195 19.7623 7.99662 18.9474L8.14942 18.438H8.09849C7.74195 18.7946 7.18168 19.1002 6.57048 19.1002C5.04246 19.1002 4.83873 17.4193 5.75554 14.4143C6.67234 11.4601 7.74195 9.67741 9.26997 9.67741C10.0849 9.67741 10.3396 10.0849 10.5942 10.5433H10.6452L10.8489 9.83021H12.8863L10.1358 18.8964C9.4737 20.73 8.25129 21.9525 6.36674 21.9525C4.22752 22.0034 4.22752 20.3226 4.38032 19.5076ZM7.79289 17.725C8.04756 17.725 8.30223 17.6231 8.45503 17.4193L10.2377 11.562C10.1358 11.4601 9.98304 11.2564 9.67744 11.2564C9.06623 11.2564 8.81156 11.6638 7.99662 14.4652C7.13075 17.3175 7.18168 17.725 7.79289 17.725Z" fill="#DEFE7F"/>
  <path d="M12.0713 14.4143C12.9881 11.4601 16.3498 9.52461 20.5773 9.52461C24.8048 9.52461 27.0459 11.4601 26.129 14.4143C25.2122 17.3684 21.8506 19.3039 17.6231 19.3039C13.3956 19.3039 11.2055 17.3684 12.0713 14.4143ZM22.5127 14.4143C23.0221 12.7844 21.9525 11.7657 19.9151 11.7657C17.8778 11.7657 16.197 12.7844 15.7386 14.4143C15.2292 16.0441 16.2988 17.0628 18.3362 17.0628C20.3735 17.0628 22.0034 16.0441 22.5127 14.4143Z" fill="#DEFE7F"/>
  <path d="M12.326 29.9491C8.35316 29.9491 4.88966 28.4211 2.64857 25.6197C1.52803 24.1935 0.713091 22.5637 0.305621 20.7301C-0.10185 18.8455 -0.10185 16.8591 0.356554 14.8217C1.17149 10.8489 3.51445 7.13073 6.87608 4.38031C10.2377 1.52801 14.2615 0 18.2343 0C22.2071 0 25.6706 1.52801 27.9117 4.32937C29.0323 5.75552 29.8472 7.3854 30.2547 9.21902C30.6622 11.1036 30.6622 13.09 30.2037 15.1273C29.3888 19.1002 27.0459 22.8183 23.6842 25.5688C20.3226 28.4211 16.2988 29.9491 12.326 29.9491ZM18.2343 1.83362C10.8998 1.83362 3.66725 7.8438 2.13924 15.1783C1.37523 18.6927 2.0883 22.0034 4.07472 24.4482C6.0102 26.7912 8.91343 28.1154 12.326 28.1154C19.6605 28.1154 26.8931 22.1562 28.4211 14.7708C29.1851 11.2564 28.472 7.94567 26.4856 5.50085C24.601 3.15789 21.6469 1.83362 18.2343 1.83362Z" fill="#DEFE7F"/>
</svg>
